# xmcd
#
# Track frame offsets:
#	150
#	12431
#	25376
#	38710
#	49356
#	72204
#	82863
#	92810
#	111801
#	127010
#
# Disc length: 2062 seconds
#
# Revision: 0
# Processed by: cddbd v1.5.2PL0 Copyright (c) Steve Scherf et al.
# Submitted via: audiograbber 1.83.01
#
DISCID=80080c0a
DTITLE=Creedence Clearwater Revival - Willy And The Poor Boys
DYEAR=1969
DGENRE=Rock
TTITLE0=Down On The Corner
TTITLE1=It Came Out Of The Sky
TTITLE2=Cotton Fields
TTITLE3=Poorboy Shuffle
TTITLE4=Feelin' Blue
TTITLE5=Fortunate Son
TTITLE6=Don't Look Now
TTITLE7=The Midnight Special
TTITLE8=Side O' The Road
TTITLE9=Effigy
EXTD=
EXTT0=
EXTT1=
EXTT2=
EXTT3=
EXTT4=
EXTT5=
EXTT6=
EXTT7=
EXTT8=
EXTT9=
PLAYORDER=
